<?xml version="1.0" encoding="UTF-8" standalone="no"?>
<!-- Created with Inkscape (http://www.inkscape.org/) -->

<svg
   version="1.1"
   id="svg10"
   width="295.45801"
   height="195.03748"
   viewBox="0 0 295.45801 195.03748"
   sodipodi:docname="Flag_of_Dmanisi_Municipality.svg"
   inkscape:version="1.3.2 (091e20ef0f, 2023-11-25, custom)"
   xmlns:inkscape="http://www.inkscape.org/namespaces/inkscape"
   xmlns:sodipodi="http://sodipodi.sourceforge.net/DTD/sodipodi-0.dtd"
   xmlns="http://www.w3.org/2000/svg"
   xmlns:svg="http://www.w3.org/2000/svg"
   xmlns:rdf="http://www.w3.org/1999/02/22-rdf-syntax-ns#"
   xmlns:cc="http://creativecommons.org/ns#"
   xmlns:dc="http://purl.org/dc/elements/1.1/">
  <metadata
     id="metadata16">
    <rdf:RDF>
      <cc:Work
         rdf:about="">
        <dc:format>image/svg+xml</dc:format>
        <dc:type
           rdf:resource="http://purl.org/dc/dcmitype/StillImage" />
        <dc:title />
      </cc:Work>
    </rdf:RDF>
  </metadata>
  <defs
     id="defs14" />
  <sodipodi:namedview
     pagecolor="#ffffff"
     bordercolor="#ffffff"
     borderopacity="1"
     objecttolerance="10"
     gridtolerance="10"
     guidetolerance="10"
     inkscape:pageopacity="0"
     inkscape:pageshadow="2"
     inkscape:window-width="1920"
     inkscape:window-height="1015"
     id="namedview12"
     showgrid="false"
     borderlayer="true"
     fit-margin-top="-62"
     fit-margin-left="-12"
     fit-margin-right="-13"
     fit-margin-bottom="-63"
     inkscape:zoom="2.525"
     inkscape:cx="138.41584"
     inkscape:cy="108.11881"
     inkscape:window-x="0"
     inkscape:window-y="0"
     inkscape:window-maximized="1"
     inkscape:current-layer="layer2"
     inkscape:showpageshadow="2"
     inkscape:pagecheckerboard="0"
     inkscape:deskcolor="#d1d1d1" />
  <g
     inkscape:groupmode="layer"
     id="layer2"
     inkscape:label="Layer 1"
     style="display:inline"
     transform="translate(0.21027507,0.03758585)">
    <rect
       style="opacity:1;fill:#ffffff;fill-opacity:1;stroke:none;stroke-width:0.400599;stroke-miterlimit:4;stroke-dasharray:none;stroke-opacity:1"
       id="rect22"
       width="295.45801"
       height="195.03748"
       x="-0.21027507"
       y="-0.037585855" />
  </g>
  <g
     inkscape:groupmode="layer"
     id="layer3"
     inkscape:label="Layer 2"
     style="display:inline"
     transform="translate(0.21027507,0.03758585)">
    <rect
       style="opacity:1;fill:#ff0000;fill-opacity:1;stroke:none;stroke-width:0.401012;stroke-miterlimit:4;stroke-dasharray:none;stroke-opacity:1"
       id="rect25"
       width="295.45752"
       height="130.07425"
       x="-0.21003093"
       y="65.099007" />
  </g>
  <g
     inkscape:groupmode="layer"
     id="layer4"
     inkscape:label="Layer 3"
     style="display:inline"
     transform="translate(0.21027507,0.03758585)">
    <path
       style="fill:#ff0000;fill-opacity:1;stroke:none;stroke-width:1.01701px;stroke-linecap:butt;stroke-linejoin:miter;stroke-opacity:1"
       d="m 155.15652,10.995274 -1.90625,0.248046 -2.01562,0.140626 -2.08594,0.140624 -1.50976,0.105469 h -1.72657 l -1.79883,-0.105469 -1.83398,-0.105468 -1.47461,-0.140625 -1.15234,-0.107422 0.68359,2.009765 0.43164,1.691407 0.46875,1.972656 0.43164,2.080078 0.25,1.972656 0.14453,2.113282 0.0723,1.339843 -0.0352,1.375 -0.084,0.642578 -0.63086,0.08203 -1.375,0.03516 -1.33789,-0.07227 -2.11524,-0.142578 -1.97265,-0.251953 -2.07813,-0.431641 -1.97461,-0.46875 -1.6914,-0.43164 -2.00782,-0.681641 0.10547,1.150391 0.14063,1.474609 0.10547,1.833985 0.10742,1.798828 v 1.726562 l -0.10742,1.509766 -0.14063,2.08789 -0.14062,2.013672 -0.2461,1.90625 1.12696,-0.251953 1.55078,-0.43164 1.86719,-0.396485 2.08007,-0.322265 2.25391,-0.324219 2.00976,-0.251953 1.76172,-0.179688 1.40821,-0.03711 1.33007,0.0293 0.0957,0.726562 0.0371,1.373047 -0.0723,1.339844 -0.14453,2.113281 -0.25195,1.974609 -0.43164,2.078126 -0.4668,1.972656 -0.43164,1.691406 -0.68359,2.009766 1.15039,-0.105469 1.47461,-0.142578 1.83593,-0.105469 1.79688,-0.105469 h 1.72656 l 1.51172,0.105469 2.08594,0.142578 2.01367,0.140625 1.90625,0.246094 -0.25195,-1.126953 -0.43164,-1.550782 -0.39454,-1.867187 -0.32422,-2.080078 -0.32421,-2.253906 -0.25196,-2.009766 -0.17968,-1.761719 -0.0352,-1.408203 0.0273,-1.390625 1.28907,-0.02539 1.41015,0.03516 1.76172,0.179687 2.00781,0.251953 2.25586,0.324219 2.07813,0.322266 1.86914,0.396484 1.54883,0.431641 1.1289,0.251953 -0.24804,-1.90625 -0.14063,-2.013672 -0.14062,-2.087891 -0.10547,-1.509765 v -1.726563 l 0.10547,-1.798828 0.10546,-1.833984 0.14063,-1.47461 0.10547,-1.15039 -2.00781,0.683594 -1.69141,0.429687 -1.97266,0.46875 -2.08007,0.431641 -1.97266,0.251953 -2.11328,0.142578 -1.33985,0.07227 -1.375,-0.03516 -0.66211,-0.08789 -0.0273,-1.314454 0.0371,-1.410156 0.17969,-1.761718 0.25195,-2.007813 0.32227,-2.255859 0.32422,-2.078125 0.39648,-1.869141 0.43164,-1.548828 z"
       id="path72"
       inkscape:connector-curvature="0" />
  </g>
  <g
     inkscape:groupmode="layer"
     id="layer5"
     inkscape:label="Layer 4"
     style="display:inline"
     transform="translate(0.21027507,0.03758585)">
    <path
       style="fill:#f9c300;fill-opacity:1;stroke:none;stroke-width:1px;stroke-linecap:butt;stroke-linejoin:miter;stroke-opacity:1"
       d="m 113.60734,105.15981 0.47257,-0.73512 0.50758,-0.6826 0.6651,-0.73511 0.71761,-0.73511 0.84013,-0.78762 0.80512,-0.70011 1.26019,-1.085158 0.91014,-0.63009 0.89263,-0.54259 0.59509,-0.315044 -0.33255,-0.437566 -0.12252,-0.297545 0.14002,-0.122518 0.59509,-0.03501 0.94514,-0.0175 0.40257,-0.05251 -0.0525,-0.245037 -0.14002,-0.157524 0.0175,-0.140021 h 0.24504 l 0.78762,-0.122519 0.57758,-0.07001 0.19253,-0.140021 -0.10501,-0.122519 0.035,-0.140021 0.17503,-0.0175 0.89263,-0.122518 0.6476,-0.03501 0.78762,-0.07001 0.43756,-0.08751 0.21004,-0.420064 -0.0525,-0.472571 v -0.542582 l 0.0875,-0.560085 0.21003,-0.437566 0.24504,-0.157524 0.24504,0.03501 0.40256,0.297545 0.49007,0.437566 0.71761,0.647598 0.29755,0.40256 0.26254,0.175027 0.50757,0.140021 0.6651,-0.0175 0.50758,0.105016 0.98015,0.472571 0.6826,0.420064 0.49007,0.33255 0.38506,0.33255 0.36756,0.105016 0.54258,0.05251 0.84013,-0.0175 0.54258,0.07001 0.63009,0.175027 0.43757,0.33255 0.26254,0.350053 0.19253,0.490071 0.14002,0.33255 0.28004,0.17503 0.54258,0.10502 0.49008,-0.0875 0.45507,0.0875 0.47257,0.33255 0.42006,0.38505 0.26254,0.367558 0.35005,0.10502 h 0.52508 l 0.42007,-0.0875 0.28004,0.15753 0.15752,0.29754 -0.0875,0.35005 -0.15752,0.28005 -0.035,0.38505 0.07,0.6126 0.0525,0.22753 -0.12252,0.28004 -0.38506,0.10502 -0.19253,0.19253 -0.0875,0.28004 0.0525,0.42006 -0.12252,0.40257 -0.31505,0.40256 -0.52508,0.36755 -0.31504,0.22754 -0.29755,0.12251 -0.19253,-0.24503 0.0175,-0.38506 v -0.47257 l -0.15752,-0.15753 -0.29755,-0.0525 h -0.59508 l -0.43757,0.0525 -0.43757,-0.15752 -0.31504,-0.36756 -0.36756,-0.17502 -0.33255,-0.07 -0.21003,-0.21003 -0.24504,-0.24504 -0.40256,-0.21003 -0.6301,-0.07 -0.73511,0.0525 -0.45506,0.14003 -0.45507,0.28004 -0.50758,0.36755 -0.35005,0.28005 -0.22754,0.29754 -0.17502,0.52508 -0.22754,0.43757 -0.0875,0.49007 0.12252,0.33255 0.31504,0.33255 0.33255,0.0175 0.36756,-0.14002 0.33255,-0.28004 0.28004,-0.28004 0.47257,-0.22754 0.56009,-0.22753 0.56008,-0.12252 0.70011,-0.035 0.84013,0.10501 0.87513,0.21003 0.80512,0.31505 0.78762,0.31505 0.98015,0.29754 0.94514,0.31505 0.98015,0.21003 0.84012,0.28004 0.84013,0.19253 0.85763,0.07 1.10267,-0.0875 0.91013,-0.19253 0.82263,-0.31505 0.59509,-0.38505 0.50758,-0.42007 0.28004,-0.47257 0.10501,-0.54258 0.035,-0.71761 -0.035,-0.59509 -0.24503,-0.56008 -0.29755,-0.6651 0.21003,0.0525 0.52508,0.35006 0.42007,0.43756 0.35005,0.6476 0.24504,0.52508 0.07,0.56008 -0.0525,0.6126 -0.21003,0.50757 -0.29755,0.57759 -0.50757,0.6651 -0.71761,0.6476 -0.84013,0.43757 -0.78762,0.26253 -0.84013,0.10502 -0.91013,-0.07 -1.24269,-0.0875 -1.01515,-0.26254 -1.06767,-0.38506 -1.3827,-0.70011 -0.91014,-0.38505 -0.89264,-0.29755 -0.82262,-0.19253 h -0.6476 l -0.45507,0.14002 -0.38506,0.28004 -0.17502,0.31505 0.0175,0.35006 0.19253,0.33255 0.36756,0.31504 0.50757,0.26254 0.45507,0.0175 0.43757,-0.07 0.42006,-0.22753 0.31505,-0.36756 0.19253,-0.38505 0.14002,-0.14002 0.07,0.14002 0.07,0.33255 0.12252,0.31504 0.33255,0.24504 0.15752,0.15753 0.14002,0.35005 0.0525,0.33255 -0.0175,0.42006 -0.17503,0.36756 -0.33255,0.22753 -0.26254,0.31505 -0.31505,0.28004 -0.45506,0.10502 -0.38506,-0.0875 -0.29755,-0.28004 -0.14002,-0.43756 -0.26254,-0.21004 -0.26254,-0.17502 -0.7001,-0.17503 -0.75262,-0.26254 -0.7001,-0.10501 -0.6651,0.035 -0.96265,0.0525 -0.57759,0.0525 -0.78761,0.07 -0.6126,0.19253 -0.52508,0.21003 -0.54258,0.38506 -0.57759,0.49007 -0.49007,0.56008 -0.28004,0.6301 -0.21003,0.6826 -0.15753,0.56009 -0.21003,0.77011 -0.0175,0.75262 0.07,0.78762 0.17502,0.87513 0.49008,0.87513 0.61259,0.84013 0.78762,0.71761 0.84013,0.59509 0.94514,0.47257 0.92764,0.29754 1.10267,0.19253 1.13767,0.0525 1.45272,0.07 1.64525,0.035 h 1.50522 l 1.48773,0.035 1.22518,0.0525 1.2777,0.21003 1.31269,0.22753 1.01516,0.22754 1.47022,0.45507 1.45272,0.57758 1.20768,0.6126 1.41772,0.91013 1.50522,0.99766 1.73276,1.17267 0.85763,0.49008 0.71761,0.29754 1.34771,0.17503 2.0303,-0.035 2.41537,-0.07 3.06296,-0.0175 h 5.23329 l 4.79572,-0.0525 1.08517,-0.17502 0.82262,-0.29755 1.19018,-0.45507 1.57524,-0.43756 1.54023,-0.21004 2.31035,-0.0875 1.75027,0.0175 1.55773,0.15753 1.9778,0.22753 1.68025,0.43757 0.99765,0.0525 1.06767,-0.0175 0.85763,-0.29754 0.73511,-0.47257 0.75261,-0.94515 0.24504,-0.64759 0.26254,-0.92764 0.07,-0.92764 -0.14002,-0.87514 -0.35006,-0.85763 -0.56008,-0.94514 -0.6826,-0.7001 -0.89264,-0.73512 -0.87513,-0.50757 -1.03266,-0.45507 -1.19018,-0.36756 -1.19018,-0.26254 -1.43521,-0.15752 -1.36521,-0.0175 -1.05016,0.10501 -1.10267,0.26254 -1.03265,0.35006 -1.40021,0.6651 -1.66275,0.80512 -1.62775,0.91014 -2.10032,1.19018 -1.29519,0.63009 -1.68026,0.73511 -1.47022,0.57759 -1.41771,0.42006 -1.3302,0.31505 -1.92529,0.21003 -1.57524,0.15752 -1.55774,0.035 -1.47022,-0.035 -1.3302,-0.17502 -1.13767,-0.21003 -1.3302,-0.29755 -1.06766,-0.49007 -1.22519,-0.75262 -1.12017,-0.82262 -1.03265,-1.19018 -0.91014,-1.15517 -0.59509,-1.01516 -0.42006,-1.13767 -0.29755,-1.20768 -0.22753,-1.47022 -0.035,-1.36521 0.0875,-1.47022 0.24504,-1.05016 0.36756,-1.15517 0.49007,-1.17268 0.61259,-1.01516 0.68261,-0.89263 0.99765,-1.06766 0.98014,-0.80512 1.19018,-0.78762 1.3127,-0.57759 1.24269,-0.43757 0.73511,-0.14002 0.22754,-0.0525 0.17502,-0.28005 0.22754,-0.26254 0.40256,-0.10501 0.36755,0.0175 0.33255,0.19253 0.42007,0.31505 0.40256,0.14002 0.73511,-0.0175 1.24269,-0.07 1.27769,0.10501 1.90779,0.47257 2.36285,0.82263 2.20534,0.89263 2.45037,1.22519 2.25784,1.29519 1.13767,0.68261 0.6651,0.24503 0.99765,0.19253 1.78527,0.07 1.27769,-0.07 0.92764,-0.19253 0.68261,-0.33255 0.7001,-0.54258 0.56009,-0.80512 0.0875,-0.24504 0.0175,0.57759 -0.22753,0.6826 -0.52508,0.92764 -0.42006,0.61259 -0.75262,0.6301 -0.89263,0.6476 -0.98015,0.42006 -0.73511,0.35005 -0.92764,0.22754 -0.92764,0.0525 -1.03266,-0.035 -0.94514,-0.12252 -0.78762,-0.17502 -0.6826,-0.29755 h -0.28004 l -0.29755,0.21003 -0.63009,0.43757 -0.54259,0.40256 -0.63009,0.17503 -0.6476,0.0175 -0.6301,-0.12252 -0.61259,-0.24504 -0.52508,-0.43756 -0.45507,-0.6301 -0.43756,-0.38506 -0.26254,-0.035 -0.17503,0.19253 -0.0875,0.29754 -0.38506,0.47257 -0.50758,0.31505 -0.7001,0.12252 -0.6826,-0.0875 -0.56009,-0.19253 -0.56008,-0.42007 -0.31505,-0.40256 -0.19253,-0.47257 -0.17503,-0.28004 -0.29754,-0.0525 -0.21003,0.12252 -0.21004,0.29754 -0.50757,0.33256 -0.56009,0.22753 -0.64759,-0.0175 -0.6651,-0.21003 -0.49008,-0.43757 -0.42006,-0.61259 -0.14002,-0.56009 0.0875,-0.47257 0.24504,-0.57759 0.31504,-0.31504 0.35006,-0.19253 0.35005,-0.0525 0.28004,0.10501 0.17503,0.19253 0.0175,0.35006 0.035,0.26254 0.14002,0.24503 0.42006,0.0525 0.35005,-0.0875 0.40257,-0.26254 0.28004,-0.36756 0.12252,-0.45507 -0.0525,-0.52508 -0.19253,-0.50757 -0.24504,-0.38506 -0.52508,-0.24504 -0.63009,-0.10501 -0.59509,-0.035 -0.52508,0.0525 -0.35005,0.19253 -0.43757,0.29754 -0.24504,0.28005 -0.24503,-0.035 -0.43757,-0.31505 -0.38506,-0.12252 -0.38506,-0.0175 -0.56008,0.19253 -0.59509,0.26254 -0.6476,0.40256 -0.73511,0.54258 -0.71761,0.70011 -0.47257,0.82262 -0.52508,0.87514 -0.38506,0.99765 -0.15752,1.06766 -0.12252,1.24269 0.14002,1.24268 0.49008,1.87279 0.59509,1.10266 0.87513,1.05016 0.94514,0.94514 1.06766,0.70011 1.26019,0.47257 1.13767,0.28004 1.41772,0.10502 2.06531,-0.035 1.66275,-0.035 1.08516,-0.15753 1.12017,-0.29754 1.43522,-0.56009 1.47022,-0.7176 1.3302,-0.87514 1.2777,-1.01515 1.27769,-0.78762 1.45272,-0.78762 1.57524,-0.6651 1.27769,-0.47257 1.89028,-0.49007 1.48773,-0.22754 1.89029,-0.10501 1.66275,0.035 1.80277,0.07 1.08516,0.10502 1.17268,0.31505 1.3477,0.64759 1.64525,0.82263 0.78762,0.50758 0.52508,0.14002 0.59509,-0.0175 0.40256,-0.26254 0.29755,-0.38505 0.14002,-0.52508 -0.07,-0.6476 -0.29755,-0.59509 -0.38506,-0.45507 -0.45507,-0.29754 -0.54258,-0.15753 h -0.47257 l -0.35005,0.0525 -0.36756,0.29754 -0.43756,0.42007 -0.43757,0.33255 -0.40256,0.19253 -0.43757,0.07 -0.43756,-0.0875 -0.0175,-0.22753 0.12252,-0.19253 0.35006,-0.10501 0.40256,-0.22754 0.33255,-0.40256 0.21003,-0.52508 0.29754,-0.63009 0.29755,-0.59509 0.35005,-0.49008 0.56009,-0.47257 0.57758,-0.22753 0.57759,-0.14003 0.6301,0.035 0.82262,0.19253 0.56008,0.28004 0.6126,0.56009 0.52508,0.7176 0.17502,0.6126 0.14002,0.43756 -0.035,0.6301 -0.14002,0.42006 -0.28005,0.49008 -0.10501,0.33255 0.07,0.24503 0.21003,0.0525 0.28004,-0.035 0.47258,-0.0525 0.49007,0.07 0.59509,0.29754 0.45507,0.40256 0.33255,0.49008 0.26254,0.59509 0.0175,0.49007 -0.17503,0.6826 -0.31504,0.45507 -0.52508,0.47257 -0.54259,0.26254 -0.49007,0.0875 -0.35005,-0.07 -0.12252,-0.17503 0.0175,-0.40256 -0.07,-0.31505 -0.22753,-0.15752 -0.50758,-0.0875 -0.33255,0.14002 -0.14002,0.21003 -0.035,0.40256 0.14003,0.45507 0.31504,0.40256 0.52508,0.78762 0.52508,0.94514 0.40256,1.03266 0.21003,0.84012 0.24504,1.13767 0.0875,0.92764 -0.0525,0.80513 -0.21004,0.77011 -0.50757,1.08517 -0.43757,0.64759 -0.59509,0.78762 -1.03265,1.05016 -1.01516,0.75262 -1.13767,0.61259 -1.27769,0.45507 -0.96265,0.28004 -0.75261,0.21003 -0.24504,0.19253 0.035,0.21003 0.40256,0.49008 0.40256,0.98014 0.29754,1.15518 0.22754,1.24269 0.035,1.66275 -0.035,1.50522 0.0525,1.3127 0.0175,1.20768 0.10501,0.98015 0.24504,0.91014 0.50758,1.13767 0.6826,0.85763 0.94514,0.87513 0.77012,0.52508 0.6826,0.26254 0.68261,0.07 h 0.54258 l 0.50757,-0.14002 0.40257,-0.31505 0.22753,-0.35005 0.0875,-0.50758 -0.0175,-0.54258 -0.07,-0.71761 v -0.73511 l 0.22753,-0.40256 0.42007,-0.22753 0.35005,-0.0525 0.31505,0.15752 0.40256,0.36756 0.57759,0.6651 0.38505,0.52508 0.54259,0.77012 0.33255,0.78761 0.28004,1.05016 0.26254,1.41772 0.035,1.08516 -0.07,1.45272 -0.19253,1.26019 -0.0875,1.26019 -0.0175,0.91014 0.10501,0.33255 0.29755,0.19253 0.43757,0.0175 0.56008,0.15752 0.59509,0.35006 0.33255,0.0175 0.31505,-0.15752 0.33255,-0.40256 0.26254,-0.0175 0.12252,0.21003 -0.0175,0.40257 -0.19253,0.42006 -0.35005,0.26254 -0.49007,0.14002 -0.19253,0.24504 0.035,0.22753 0.17503,0.21003 0.38506,0.10502 0.47257,-0.07 0.50758,-0.17503 0.42006,-0.28004 0.28004,-0.38506 0.15753,-0.29754 0.28004,-0.035 0.0875,0.29755 -0.0875,0.47257 -0.26254,0.47257 -0.38506,0.40256 -0.45507,0.47257 -0.42006,0.28004 -0.35006,0.40256 0.07,0.17503 0.15752,0.21003 0.40256,0.035 0.31505,-0.0875 0.28004,-0.15752 0.28004,0.10502 0.12252,0.22753 -0.07,0.22753 -0.21003,0.31505 -0.31505,0.21003 -0.50758,0.0875 -0.75261,0.0525 -0.77012,-0.0875 h -0.40256 l -0.42006,0.10502 -0.31505,0.26254 -0.15752,0.42006 -0.035,0.57759 0.10502,0.61259 0.38506,0.6301 0.38506,1.03265 0.35005,0.36756 0.19253,0.28004 v 0.50758 l -0.26254,0.57758 v 0.33255 l 0.19253,0.45507 -0.0875,0.49008 -0.22753,0.47257 -0.17503,0.40256 -0.33255,0.26254 -0.35005,-0.15753 -0.12252,-0.36755 -0.29754,-0.26254 -0.43757,-0.0525 -0.50758,0.07 -0.54258,-0.0875 -0.47257,-0.24504 -0.47257,-0.10501 -0.47257,0.07 -0.50758,0.26254 -0.80512,0.6826 -0.80512,0.57759 -0.50758,0.56008 -0.29754,0.56009 -0.17503,0.59509 -0.21003,0.43756 -0.31505,-0.17503 -0.29754,-0.63009 -0.31505,-0.56008 -0.29755,-0.42007 -0.43756,-0.17502 -0.49008,-0.0875 -0.45507,0.12252 -0.31504,0.24504 -0.14002,0.31505 -0.035,0.42006 0.17503,0.42006 0.0175,0.47257 -0.29755,0.12252 -0.50757,-0.17502 -0.59509,-0.6651 -0.45507,-0.57759 -0.14002,-0.45507 -0.35005,-0.21003 -0.50758,-0.035 -0.31505,0.0525 -0.24504,0.19253 -0.07,0.28004 0.12252,0.35005 -0.035,0.38506 -0.0875,0.29755 -0.31504,0.0525 -0.38506,-0.29755 -0.35006,-0.38506 -0.14002,-0.31505 -0.0175,-0.49007 0.10502,-0.38506 0.035,-0.43756 -0.14002,-0.38506 -0.35005,-0.21003 -0.10502,-0.36756 0.035,-0.35005 0.24503,-0.56009 0.40257,-0.36755 0.43756,-0.40256 0.45507,-0.40256 0.31505,-0.14002 0.57758,-0.0175 0.75262,0.0525 0.35005,0.0175 0.28004,-0.17502 0.19253,-0.24504 0.35006,-0.0875 0.40256,-0.0525 0.40256,0.07 0.38506,0.0525 0.40256,-0.14002 0.47257,-0.21004 0.36755,-0.31504 0.21003,-0.43757 0.36756,-0.29754 0.19253,-0.31505 0.14002,-0.54258 0.0175,-0.45507 0.19253,-0.31505 0.33255,-0.24504 0.14002,-0.45507 -0.12251,-0.36755 -0.28005,-0.35005 -0.28004,-0.50758 -0.14002,-0.54258 -0.0175,-0.6126 -0.07,-0.6826 -0.28005,-0.7001 -0.50757,-0.92764 -0.75262,-1.08517 -0.82262,-1.13767 -0.87513,-0.94514 -0.50758,-0.59509 -0.42006,-0.17503 h -0.36756 l -0.28004,0.14002 -0.31505,0.22754 -0.36755,0.33255 -0.57759,0.31504 -0.59509,0.26254 -0.78762,0.12252 -0.96265,0.07 -1.05015,0.0175 -0.94515,-0.12252 -0.94514,-0.24504 -1.01515,-0.47257 -0.99765,-0.6301 -1.34771,-1.13767 -0.84012,-0.96264 -0.84013,-0.99765 -0.50758,-0.71761 -0.38506,-0.45507 -0.0875,-0.36756 -0.0875,-0.28004 -0.33255,-0.19253 -0.52508,-0.0525 -0.94514,0.10502 -0.71761,0.17503 -0.57759,0.29754 -0.56008,0.40256 -0.50758,0.6301 -0.45507,0.73511 -0.19253,0.57759 -0.035,0.7176 0.07,0.75262 0.10501,0.6651 0.22754,0.43756 0.40256,0.29755 0.54258,0.15752 h 0.56008 l 0.47258,-0.0875 0.52507,-0.22753 0.38506,-0.33256 0.21003,-0.49007 0.14003,-0.21003 0.26254,0.26254 0.17502,0.45507 0.12252,0.56008 -0.07,0.92764 -0.21003,0.6476 -0.50758,0.6826 -0.47257,0.52508 -0.89263,0.54258 -0.6126,0.31505 -0.64759,0.10502 -0.38506,0.15752 -0.15753,0.22754 -0.035,0.31504 0.14002,0.35006 0.42006,0.26254 0.59509,0.21003 0.45507,0.15752 0.56009,0.12252 0.63009,0.0175 0.70011,-0.15752 0.50757,-0.24504 0.31505,-0.26254 0.24504,-0.12252 0.0525,0.28005 -0.21004,0.43756 -0.50757,0.45507 -0.57759,0.40256 -0.57759,0.28004 -0.38506,0.19253 -0.6826,0.12252 -0.42006,0.0525 -0.40256,0.14002 -0.0525,0.10502 0.33255,0.19253 0.38506,0.0525 0.33255,0.0875 0.17502,0.0525 -0.26254,0.26254 -0.56008,0.29755 -0.6826,0.0875 -0.77012,-0.07 -0.40256,-0.0875 -0.38506,-0.10502 -0.26254,0.07 -0.21003,0.17503 0.0175,0.22753 0.26254,0.24504 0.47257,0.19253 0.43757,0.22753 0.36756,0.22754 0.38505,0.28004 0.22754,0.15752 -0.35005,0.0875 -0.50758,0.0875 -0.6476,0.07 -0.52508,0.0875 h -0.6826 l -0.71761,-0.17503 -0.56008,-0.42006 -0.38506,-0.45507 -0.42007,-0.35006 -0.42006,-0.0175 -0.52508,0.12252 -0.31505,0.28004 -0.26254,0.38506 -0.21003,0.43757 -0.24503,0.57758 -0.33255,0.40256 -0.40257,0.38506 -0.29754,0.19253 -0.07,0.17503 0.0525,0.19253 0.17502,0.17502 0.31505,0.10502 0.17503,0.33255 0.10501,0.43757 -0.0875,0.92764 -0.28004,0.28004 -0.0175,0.24503 0.12252,0.40257 -0.035,0.54258 -0.14002,0.40256 -0.28005,0.42006 -0.19252,0.36756 -0.19253,0.31504 -0.26254,0.14003 -0.21003,-0.38506 -0.21004,-0.31505 -0.43756,-0.28004 -0.35006,-0.14002 -0.47257,0.0175 -0.42006,-0.07 -0.42006,-0.29755 -0.33255,-0.24503 -0.43757,-0.12252 h -0.40256 l -0.47257,0.14002 -0.28004,0.10502 -0.17503,0.22753 -0.10502,0.35005 -0.19253,0.36756 -0.26254,0.14002 -0.40256,0.10502 -0.31504,0.07 -0.43757,0.12251 -0.14002,0.21004 -0.10502,0.43756 0.0875,0.52508 0.14002,0.45507 0.0175,0.22753 -0.50758,-0.14002 -0.75261,-0.47257 -0.59509,-0.52508 -0.21003,-0.43756 -0.24504,-0.45507 -0.45507,-0.36756 -0.50757,-0.21003 h -0.52508 l -0.50758,0.14002 -0.36756,0.40256 -0.21003,0.29755 0.035,0.36755 0.10501,0.35006 v 0.33255 l -0.14002,0.12251 -0.49007,-0.38505 -0.50758,-0.6651 -0.45507,-0.45507 -0.17502,-0.31505 -0.14002,-0.35005 -0.29755,-0.29755 -0.42006,-0.14002 -0.36756,-0.0525 -0.35005,0.07 -0.31505,0.19253 -0.10501,0.35006 -0.0175,0.36755 0.035,0.31505 -0.0525,0.24504 -0.38506,-0.14003 -0.57759,-0.59509 -0.21003,-0.56008 -0.035,-0.43757 0.12252,-0.64759 0.47257,-0.68261 0.6826,-0.64759 0.61259,-0.49008 0.70011,-0.40256 0.85763,-0.29754 1.38271,-0.22754 1.03265,-0.12252 1.05016,-0.0525 0.87513,-0.0875 0.31505,-0.12252 0.6476,-0.36755 0.56008,-0.6126 0.57759,-0.54258 0.73511,-0.42006 0.75262,-0.45507 0.7001,-0.73511 1.50523,-1.59274 0.77012,-0.78762 0.78761,-0.96265 0.70011,-0.98014 0.31505,-0.77012 0.14002,-0.84013 -0.10502,-0.84012 -0.36755,-0.75262 -0.84013,-0.91013 -1.45272,-1.38271 -0.85763,-0.98015 -0.61259,-0.84013 -0.36756,-0.82262 -0.22753,-0.91014 -0.0525,-1.10267 0.17503,-0.94514 0.40256,-1.08516 0.36755,-0.6301 0.56009,-0.59509 0.40256,-0.36755 0.19253,-0.52508 0.0525,-0.96265 -0.0525,-0.77011 -0.22754,-0.21004 -0.50757,-0.035 -0.38506,0.15752 -0.36756,0.33255 -0.54258,0.6126 -0.84013,1.05015 -0.59508,0.91014 -0.73512,0.85763 -0.84012,0.84013 -1.15518,1.19018 -1.3652,1.13767 -1.38271,0.98015 -1.3127,0.71761 -1.15517,0.33255 -1.36521,0.31504 -1.40021,0.12252 -1.3127,-0.0525 -1.40021,-0.21003 -1.24269,-0.22753 -1.45272,-0.52508 -1.3477,-0.6476 -0.92764,-0.50758 -0.71761,-0.21003 -0.47257,0.10502 -0.17503,0.24504 v 0.42006 l -0.14002,0.6476 -0.38506,0.54258 -0.50757,0.78762 -0.21004,0.40256 -0.07,0.43756 0.10502,0.42007 0.31505,0.35005 0.35005,0.17503 0.54258,-0.0175 0.40256,-0.14002 0.50758,-0.28004 0.31505,-0.15752 0.29754,0.57758 0.0875,0.6126 v 0.7001 l -0.21003,0.52508 -0.7001,0.70011 -0.71761,0.59509 -0.94514,0.49007 -0.6476,0.36756 -0.24504,0.31504 -0.0175,0.29755 0.24504,0.26254 0.43756,0.28004 0.70011,0.50758 0.29754,0.42006 0.31505,0.22754 0.47257,0.15752 0.49007,0.035 0.26254,0.035 -0.42006,0.35005 -0.82262,0.24504 h -0.70011 l -0.56008,-0.035 -0.36756,0.07 -0.035,0.19252 0.21003,0.29755 0.22753,0.14002 0.24504,0.07 0.07,0.12252 -0.31505,0.14002 -0.61259,0.10502 h -1.17268 -0.6651 l -0.24504,0.21003 v 0.17502 l 0.22754,0.36756 0.47257,0.43757 0.42006,0.31504 0.40256,0.28005 -0.50757,0.12251 -1.01516,0.0175 -0.92764,-0.035 -0.64759,-0.21003 -0.56009,-0.33255 -0.56008,-0.45507 -0.49008,-0.21003 -0.43756,-0.035 -0.45507,0.035 -0.45507,0.17503 -0.38506,0.36755 -0.45507,0.47257 -0.40256,0.59509 -0.57758,0.56009 -0.50758,0.33255 -0.33255,0.15752 -0.12252,0.21003 0.12252,0.24504 0.42006,0.31505 0.29755,0.6651 0.0875,0.49007 0.0175,0.54258 -0.12252,0.38506 -0.14002,0.54258 0.0875,0.50758 -0.10502,0.47257 -0.47257,0.73511 -0.50758,0.54259 -0.36755,0.17502 -0.14002,-0.36755 -0.19253,-0.54259 -0.26254,-0.35005 -0.40256,-0.17503 h -0.6301 l -0.26254,-0.12251 -0.19253,-0.36756 -0.29754,-0.26254 -0.47257,-0.0175 -0.47258,0.14002 -0.15752,0.21003 -0.07,0.31505 -0.10502,0.35005 -0.28004,0.19253 -0.57759,0.21003 -0.7001,0.14002 -0.61259,0.24504 -0.19253,0.26254 -0.12252,0.50758 0.0875,0.57758 -0.0875,0.56009 -0.56009,-0.15752 -0.7001,-0.36756 -0.6301,-0.49007 -0.29754,-0.38506 -0.24504,-0.54258 -0.31505,-0.29755 -0.50757,-0.19253 -0.89264,-0.0875 -0.84012,0.0175 -0.68261,0.0875 -0.47257,0.14003 -0.17503,0.15752 -0.0875,0.42006 v 0.54258 l 0.0175,0.50758 -0.89263,-0.56008 -0.59509,-0.68261 -0.43757,-0.61259 -0.38505,-0.47257 -0.43757,-0.33255 -0.49007,-0.0875 -0.45507,0.035 -0.40256,0.15753 -0.33255,0.26253 -0.12252,0.36756 0.0175,0.56009 0.12252,0.36755 -0.6826,-0.28004 -0.49008,-0.52508 -0.38506,-0.59509 -0.14002,-0.45507 0.0175,-0.38506 0.17503,-0.22753 0.26254,-0.31505 0.15752,-0.45507 v -0.42006 l 0.10502,-0.45507 0.21003,-0.29755 0.57759,-0.50757 0.50758,-0.31505 0.63009,-0.29754 0.54258,-0.14003 0.56009,0.0175 0.45507,0.17502 0.24503,0.14002 0.31505,0.035 0.38506,-0.15752 0.40256,-0.38506 0.38506,-0.50758 0.6476,-0.42006 0.54258,-0.17503 h 0.36755 l 0.50758,0.0875 0.52508,0.31505 0.42006,0.0875 0.49008,-0.17503 0.45507,-0.40256 0.43756,-0.43757 0.54258,-0.36755 0.6476,-0.12252 0.61259,-0.07 0.6126,-0.22754 0.7176,-0.56008 0.6651,-0.85763 0.57759,-0.6476 2.01281,-1.96029 1.3652,-1.43522 0.49008,-0.6826 0.21003,-0.59509 -0.0175,-0.54259 -0.22754,-0.50757 -0.63009,-0.56009 -1.48773,-1.3302 -1.73276,-1.41771 -0.0875,-0.29755 0.14002,-0.42006 0.42006,-0.50758 0.6301,-0.50757 0.14002,-0.47258 -0.14002,-0.63009 -0.50758,-0.50758 -0.70011,-0.71761 -0.56008,-0.6651 -0.24504,-0.38505 -0.28004,-0.24504 -0.35005,-0.0875 -0.29755,0.07 -0.17502,0.22753 -0.0875,0.24504 -0.0525,0.26254 -0.22753,0.42006 -0.49007,0.50758 -0.43757,0.35005 -0.59509,0.49007 -0.50758,0.26254 -0.56008,0.0525 -0.24504,-0.24504 -0.0175,-0.54258 0.0525,-0.59509 -0.10502,-0.50757 -0.28004,-0.50758 -0.6301,-0.45507 -1.03265,-0.49007 -0.87513,-0.6301 -0.6301,-0.75261 -0.36755,-0.61259 -0.35006,-0.29755 -0.38506,-0.17503 -0.7176,-0.10501 -0.96265,-0.31505 -0.75261,-0.33255 -0.68261,-0.24504 -0.56008,-0.15752 -0.47257,0.0525 -0.22754,0.17502 -0.10501,0.43757 -0.12252,0.71761 0.07,0.87513 0.07,0.75261 0.33255,0.43757 0.36756,0.38506 0.43756,0.33255 0.40256,0.14002 -0.33255,0.19253 -0.6476,0.0875 -0.63009,-0.12252 -0.77012,-0.31504 -0.75261,-0.54259 -0.6476,-0.7176 -0.26254,-0.68261 -0.28004,-0.84012 -0.17503,0.43756 -0.07,0.71761 -0.0875,0.80512 -0.07,0.70011 -0.36756,-0.45507 -0.38505,-0.94514 -0.21004,-0.80513 -0.15752,-0.77011 -0.28004,-1.22519 -0.17503,-0.50757 -0.22753,0.50757 -0.38506,0.91014 -0.21003,0.92764 -0.10502,0.6651 0.07,0.80512 -0.49007,-0.38506 -0.45507,-0.75261 -0.33255,-0.71761 -0.29755,-0.77011 -0.22753,-0.80513 0.0525,-0.7176 0.28004,-0.50758 0.33255,-0.33255 0.21003,-0.35005 0.0525,-0.45507 -0.12252,-0.28004 -0.35005,-0.17503 -0.54258,-0.07 -0.57759,-0.0875 -0.57759,-0.24504 -0.50757,-0.52508 -0.28005,-0.6651 -0.26254,-0.36756 -0.35005,-0.0875 -0.6651,0.21003 -0.42006,0.36756 -0.45507,0.12252 h -0.75262 l -1.715259,-0.10502 3.027959,8.89134 3.90309,12.60191 2.99295,9.92399 -2.04781,0.19253 -2.32785,-7.00105 -4.09562,-13.28451 -3.027957,-9.50394 -0.560084,-2.11782 -0.157524,-0.56008 -0.350053,-0.59509 -0.59509,-0.45507 -0.630095,-0.21003 -0.367556,-0.40256 -0.280042,-0.38506 -0.577587,-0.24504 h -0.59509 -0.787619 l -0.647598,-0.19253 -0.577587,-0.45506 -0.367556,-0.43757 -0.122518,-0.38506 0.175026,-0.22753 0.26254,-0.22754 0.07001,-0.26254 0.0175,-0.38505 -0.245037,-0.28005 -0.350053,-0.24503 -0.420063,-0.035 -0.542582,0.0525 -0.367555,0.0175 -0.08751,-0.35005 0.08751,-0.45507 0.227534,-0.47257 0.770116,-0.61259 0.402561,-0.26254 0.122518,-0.33255 v -0.31505 l -0.210031,-0.40256 -0.507577,-0.33255 -0.420063,-0.14002 h -0.455069 l -0.402561,0.07 -0.192529,-0.31505 0.08751,-0.43757 0.280043,-0.38506 0.367555,-0.45506 0.437566,-0.29755 0.612593,-0.15752 0.227534,-0.24504 0.105016,-0.35005 -0.122519,-0.47257 -0.33255,-0.28005 -0.437566,-0.15752 -0.577587,-0.035 -0.385058,0.0525 -0.280043,-0.12252 0.08751,-0.49007 0.280042,-0.52508 0.420063,-0.43757 0.647598,-0.38505 0.59509,-0.24504 0.682603,-0.0875 0.490074,-0.15753 0.175027,-0.24503 -0.08751,-0.33255 -0.192529,-0.59509 -0.297545,-0.45507 -0.385058,-0.21003 -0.472571,-0.0525 -0.507577,0.07 -0.455069,-0.07 0.07001,-0.24504 0.420063,-0.33255 0.472572,-0.26254 0.245037,-0.33255 0.0175,-0.33255 -1.610243,-4.95325 -2.975449,-9.50393 -1.032656,-3.920594 -1.487725,-0.105016 -0.05251,-8.138729 4.375661,6.721015 -0.857629,0.875132 2.222835,7.543642 3.272995,10.78162 0.192529,0.6126 0.437566,0.33255 3.9731,2.80042 0.245037,0.57759 0.122518,0.98015 -0.035,2.06531 0.210032,0.98015 0.437566,0.7176 0.612592,0.6126 0.962648,0.43756 1.19018,0.35005 1.19018,0.14003 0.92764,0.19253 0.73511,0.28004 0.63009,0.45507 0.71761,0.29754 0.84013,0.07 0.77011,-0.14002 0.40257,-0.35005 0.14002,-0.29755 -0.07,-0.43756 -0.26254,-0.22754 -0.42007,-0.15752 -0.71761,-0.0875 -0.24503,-0.43757 0.21003,-0.26254 0.56008,-0.22753 0.85763,-0.10502 0.68261,0.035 0.75261,0.28005 0.6301,0.42006 0.54258,0.42006 0.35005,0.38506 0.31505,0.40256 0.22753,0.15753 0.22754,-0.0525 0.22753,-0.42006 0.0525,-0.89264 -0.10502,-1.08516 -0.54258,-1.9428 -0.50758,-1.80277 -0.40256,-1.82027 -0.29754,-1.50523 -0.14002,-1.41772 0.0175,-2.36285 0.22753,-1.2952 0.40257,-1.52273 0.64759,-1.66275 1.01516,-1.94279 0.85763,-1.26019 z"
       id="path887"
       inkscape:connector-curvature="0" />
  </g>
  <g
     inkscape:groupmode="layer"
     id="layer6"
     inkscape:label="Layer 5"
     style="display:inline"
     transform="translate(0.21027507,0.03758585)">
    <path
       style="fill:#ff0000;fill-opacity:1;stroke:none;stroke-width:1px;stroke-linecap:butt;stroke-linejoin:miter;stroke-opacity:1"
       d="m 99.381188,135.32178 0.210396,-0.21039 0.309406,-0.099 h 0.30941 l 0.2599,0.0247 0.14851,0.14851 0.099,0.19802 0.0124,0.13614 -0.11139,0.17327 -0.19802,0.099 -0.28465,0.0371 h -0.259902 l -0.284654,-0.0619 -0.222772,-0.12377 -0.01238,-0.17326 z"
       id="path890"
       inkscape:connector-curvature="0" />
  </g>
</svg>
