<?xml version="1.0" encoding="UTF-8"?>
<svg id="Layer_2" data-name="Layer 2" xmlns="http://www.w3.org/2000/svg" viewBox="0 0 460 305">
  <defs>
    <style>
      .cls-1 {
        fill: #4ba562;
      }

      .cls-1, .cls-2, .cls-3 {
        stroke-width: 0px;
      }

      .cls-2 {
        fill: #d94540;
      }

      .cls-3 {
        fill: #fffefe;
      }
    </style>
  </defs>
  <g id="Layer_90" data-name="Layer 90">
    <rect class="cls-1" width="460" height="305"/>
    <rect class="cls-2" width="230" height="305"/>
    <path class="cls-3" d="M283.88,118.73c4.64-9.56,12.02-13.83,20.69-11.84,7.85,1.8,13.38,8.75,13.38,16.83,0,8.16-5.57,15.08-13.59,16.87-8.54,1.91-15.88-2.38-20.31-11.9-.81,2.71.99,16.17,3.04,22.63.78-.01,1.25-.64,1.87-.96,3.47-1.78,7.61-1.02,10.2,1.9,2.48,2.79,2.76,7.07.69,10.18-2.16,3.23-6.21,4.57-9.85,3.25-3.63-1.31-5.95-4.95-5.41-8.81.18-1.31-.17-2.11-1.07-2.98-8.58-8.29-18.79-13.5-30.36-16.17-2.87-.66-5.76-1.17-8.7-1.38-1.98-.14-2.01-.15-1.84,1.91.28,3.5.57,7,.93,10.5.93,8.98,1.96,17.96,3.3,26.89,2.09,13.96,4.33,27.9,8.58,41.42,1.12,3.56,2.44,7.04,4.44,10.22.79,1.26,1.56,1.99,3.38,1.8,3.99-.43,8.6,3.59,9.17,7.56.56,3.87-2.19,7.79-6.23,8.88-4.74,1.28-10.17-2.83-10.44-7.92-.13-2.36.18-3.33,1.98-5.98-7.8-2.17-15.68-3.12-23.71-3.38,5.1,1.61,9.12,4.49,11.49,9.35,1.78,3.67,2.21,7.53,1.3,11.52-1.77,7.71-8.98,13.43-16.89,13.39-8.08-.04-15.12-5.86-16.8-14-.94-4.56-.09-8.85,2.43-12.76,2.47-3.84,6.1-6.15,10.45-7.41-5.41-.24-18.79,1.69-23.75,3.48,1.61,1.6,2.14,3.53,2.04,5.7-.2,4.09-4.25,8.17-8.25,8.25-4.42.09-8.13-3.28-8.53-7.75-.06-.65.05-1.28.16-1.92.55-3.22,5.41-7.86,9.85-7.03,1.01.19,1.45-.2,1.94-.84,1.3-1.73,2.26-3.65,3.09-5.64,2.75-6.58,4.43-13.47,5.93-20.4,2.67-12.34,4.55-24.8,6.14-37.32,1.13-8.89,2.03-17.8,2.79-26.73,0-.07.01-.14.02-.21q.11-1.72-1.55-1.61c-3.08.2-6.12.73-9.13,1.42-11.34,2.63-21.38,7.74-29.87,15.77-1.11,1.05-1.62,2.05-1.46,3.7.43,4.61-2.97,8.55-7.41,8.93-4.7.4-8.63-2.77-9.18-7.42-.53-4.46,2.59-8.52,7.12-9.25,1.83-.29,3.56.11,5.2.94.56.28.99.82,1.85.93,1.89-7.54,3.17-15.13,3.18-22.9-4.6,9.64-11.63,13.91-20.24,12.21-7.89-1.56-13.66-8.4-13.87-16.44-.21-8.15,5.01-15.11,12.89-17.18,4.52-1.18,8.82-.57,12.87,1.72,3.45,1.95,4.86,3.7,8.46,10.47-.22-8.1-1.52-15.58-3.35-23.12-.86.09-1.34.68-1.94.98-4.26,2.16-9.48.38-11.48-3.94-2-4.32.02-9.49,4.43-11.3,4.42-1.82,9.44.43,11.08,4.93.45,1.25.63,2.54.38,3.81-.26,1.31.24,2.11,1.13,2.98,6.6,6.4,14.3,10.98,22.94,14.01,5.3,1.86,10.74,3.08,16.35,3.51,1.74.13,1.78.09,1.61-1.54-1.42-13.69-6.15-26.01-15.13-36.58-.7-.82-1.49-1.56-2.16-2.4-.97-1.19-2.01-1.61-3.66-1.39-3.71.48-7.31-2.03-8.52-5.56-1.23-3.58.09-7.58,3.21-9.69,3.14-2.13,7.31-1.9,10.19.56,2.89,2.48,3.74,6.55,2.13,9.98-.33.71-.96,1.26-1.11,2.15,7.73,2.04,15.59,3.1,23.66,3.5-.68-.65-1.47-.73-2.17-1-7.77-3.01-12.41-11.19-10.85-19.16,1.66-8.53,8.89-14.41,17.45-14.22,7.99.18,14.88,6.01,16.42,13.88,1.57,8.02-2.59,15.96-10.04,19.21-1.23.54-2.64.63-3.73,1.53-.09.08-.42.03-.48-.24-.03-.12-.05-.28,0-.39.1-.2.29-.35.51-.23,2.68,1.4,5.43.26,8.11.08,5.15-.34,10.23-1.36,15.25-2.57.35-.08.68-.22,1.04-.34.16-.69-.4-1.04-.65-1.49-1.98-3.5-1.39-7.78,1.47-10.45,2.83-2.64,7.11-3.01,10.33-.89,3.32,2.18,4.65,6.34,3.22,10.03-1.43,3.69-5.11,5.9-9.11,5.24-1.14-.19-1.72.21-2.4.9-7.72,7.85-12.79,17.21-15.71,27.77-1.07,3.88-1.75,7.83-2.13,11.83-.15,1.54-.08,1.61,1.47,1.48,10.24-.87,19.78-3.92,28.6-9.2,3.95-2.37,7.55-5.2,10.89-8.38.93-.89,1.22-1.71,1.05-3-.56-4.25,2.35-8.25,6.46-9.11,4.3-.9,8.55,1.57,9.84,5.71,1.01,3.23-.02,6.8-2.67,8.94-2.77,2.23-5.84,2.55-9.07,1.07-.64-.29-1.22-.7-2.02-1.16-1.93,7.57-3.12,15.07-3.24,22.73Z"/>
  </g>
</svg>