<?xml version="1.0" encoding="UTF-8" standalone="no"?>
<!-- Created with Inkscape (http://www.inkscape.org/) -->

<svg
   id="svg2985"
   version="1.1"
   inkscape:version="1.3.2 (091e20ef0f, 2023-11-25, custom)"
   width="785.20935"
   height="525"
   sodipodi:docname="Flag_of_Sagarejo_Municipality.svg"
   xmlns:inkscape="http://www.inkscape.org/namespaces/inkscape"
   xmlns:sodipodi="http://sodipodi.sourceforge.net/DTD/sodipodi-0.dtd"
   xmlns="http://www.w3.org/2000/svg"
   xmlns:svg="http://www.w3.org/2000/svg"
   xmlns:rdf="http://www.w3.org/1999/02/22-rdf-syntax-ns#"
   xmlns:cc="http://creativecommons.org/ns#"
   xmlns:dc="http://purl.org/dc/elements/1.1/">
  <metadata
     id="metadata2991">
    <rdf:RDF>
      <cc:Work
         rdf:about="">
        <dc:format>image/svg+xml</dc:format>
        <dc:type
           rdf:resource="http://purl.org/dc/dcmitype/StillImage" />
        <dc:title />
      </cc:Work>
    </rdf:RDF>
  </metadata>
  <defs
     id="defs2989" />
  <sodipodi:namedview
     pagecolor="#ffffff"
     bordercolor="#ffffff"
     borderopacity="1"
     objecttolerance="10"
     gridtolerance="10"
     guidetolerance="10"
     inkscape:pageopacity="0"
     inkscape:pageshadow="2"
     inkscape:window-width="1920"
     inkscape:window-height="1015"
     id="namedview2987"
     showgrid="false"
     borderlayer="false"
     fit-margin-top="0"
     fit-margin-left="0"
     fit-margin-right="0"
     fit-margin-bottom="0"
     inkscape:zoom="0.79235225"
     inkscape:cx="502.93288"
     inkscape:cy="129.99269"
     inkscape:window-x="0"
     inkscape:window-y="0"
     inkscape:window-maximized="1"
     inkscape:current-layer="layer2"
     inkscape:showpageshadow="2"
     inkscape:pagecheckerboard="0"
     inkscape:deskcolor="#d1d1d1" />
  <g
     inkscape:groupmode="layer"
     id="layer1"
     inkscape:label="წითელი ფონი"
     transform="translate(1.3939414,0.53398253)">
    <path
       style="fill:#ff0000;fill-opacity:1;stroke:none;stroke-width:1.00019px;stroke-linecap:butt;stroke-linejoin:miter;stroke-opacity:1"
       d="M -1.1845994,-0.53398253 H 783.8154 V 524.46602 H -1.1845994 Z"
       id="path2996"
       inkscape:connector-curvature="0"
       sodipodi:nodetypes="ccccc" />
  </g>
  <g
     inkscape:groupmode="layer"
     id="layer2"
     inkscape:label="იასამნისფერი ფონი"
     transform="translate(1.3939414,0.53398253)">
    <path
       style="fill:#8c3256;fill-opacity:1;stroke:none;stroke-width:1px;stroke-linecap:butt;stroke-linejoin:miter;stroke-opacity:1"
       d="M -1.3939414,-0.53398253 H 260.4854 V 524.46602 H -0.9752574 Z"
       id="path2999"
       inkscape:connector-curvature="0"
       sodipodi:nodetypes="ccccc" />
  </g>
  <g
     inkscape:groupmode="layer"
     id="layer3"
     inkscape:label="ჯვრები"
     transform="translate(1.3939414,0.53398253)">
    <g
       id="g4883"
       transform="matrix(0.55470394,0,0,0.54947102,23.414518,-30.034442)"
       style="fill:#f9c300;fill-opacity:1;stroke:none">
      <path
         inkscape:connector-curvature="0"
         sodipodi:nodetypes="ccccc"
         id="path2818"
         d="m 51.91169,122.90614 c 13.508317,20.63137 11.773791,41.66387 -0.02669,62.96127 10.149221,-4.34044 20.525717,-4.60888 31.174844,0.007 -12.477694,-20.83638 -13.18609,-41.82562 -0.0011,-62.99529 -10.475972,6.93781 -20.837136,5.37986 -31.147014,0.0267 z"
         style="fill:#f9c300;fill-opacity:1;stroke:none" />
      <path
         inkscape:connector-curvature="0"
         style="fill:#f9c300;fill-opacity:1;stroke:none"
         d="m 98.943047,138.81603 c -20.63137,13.50832 -41.66387,11.77379 -62.96127,-0.0267 4.34044,10.14922 4.60888,20.52572 -0.007,31.17485 20.83638,-12.4777 41.82562,-13.18609 62.99529,-0.001 -6.93781,-10.47597 -5.37986,-20.83714 -0.0267,-31.14702 z"
         id="path3592"
         sodipodi:nodetypes="ccccc" />
    </g>
    <g
       id="g4883-1"
       transform="matrix(0.55470394,0,0,0.54947102,94.037351,-30.034442)"
       style="fill:#f9c300;fill-opacity:1;stroke:none">
      <path
         inkscape:connector-curvature="0"
         sodipodi:nodetypes="ccccc"
         id="path2818-7"
         d="m 51.91169,122.90614 c 13.508317,20.63137 11.773791,41.66387 -0.02669,62.96127 10.149221,-4.34044 20.525717,-4.60888 31.174844,0.007 -12.477694,-20.83638 -13.18609,-41.82562 -0.0011,-62.99529 -10.475972,6.93781 -20.837136,5.37986 -31.147014,0.0267 z"
         style="fill:#f9c300;fill-opacity:1;stroke:none" />
      <path
         inkscape:connector-curvature="0"
         style="fill:#f9c300;fill-opacity:1;stroke:none"
         d="m 98.943047,138.81603 c -20.63137,13.50832 -41.66387,11.77379 -62.96127,-0.0267 4.34044,10.14922 4.60888,20.52572 -0.007,31.17485 20.83638,-12.4777 41.82562,-13.18609 62.99529,-0.001 -6.93781,-10.47597 -5.37986,-20.83714 -0.0267,-31.14702 z"
         id="path3592-4"
         sodipodi:nodetypes="ccccc" />
    </g>
    <g
       id="g4883-0"
       transform="matrix(0.55470394,0,0,0.54947102,164.4944,-29.868661)"
       style="fill:#f9c300;fill-opacity:1;stroke:none">
      <path
         inkscape:connector-curvature="0"
         sodipodi:nodetypes="ccccc"
         id="path2818-9"
         d="m 51.91169,122.90614 c 13.508317,20.63137 11.773791,41.66387 -0.02669,62.96127 10.149221,-4.34044 20.525717,-4.60888 31.174844,0.007 -12.477694,-20.83638 -13.18609,-41.82562 -0.0011,-62.99529 -10.475972,6.93781 -20.837136,5.37986 -31.147014,0.0267 z"
         style="fill:#f9c300;fill-opacity:1;stroke:none" />
      <path
         inkscape:connector-curvature="0"
         style="fill:#f9c300;fill-opacity:1;stroke:none"
         d="m 98.943047,138.81603 c -20.63137,13.50832 -41.66387,11.77379 -62.96127,-0.0267 4.34044,10.14922 4.60888,20.52572 -0.007,31.17485 20.83638,-12.4777 41.82562,-13.18609 62.99529,-0.001 -6.93781,-10.47597 -5.37986,-20.83714 -0.0267,-31.14702 z"
         id="path3592-48"
         sodipodi:nodetypes="ccccc" />
    </g>
    <g
       id="g4883-8"
       transform="matrix(0.55470394,0,0,0.54947102,23.248737,36.775421)"
       style="fill:#f9c300;fill-opacity:1;stroke:none">
      <path
         inkscape:connector-curvature="0"
         sodipodi:nodetypes="ccccc"
         id="path2818-2"
         d="m 51.91169,122.90614 c 13.508317,20.63137 11.773791,41.66387 -0.02669,62.96127 10.149221,-4.34044 20.525717,-4.60888 31.174844,0.007 -12.477694,-20.83638 -13.18609,-41.82562 -0.0011,-62.99529 -10.475972,6.93781 -20.837136,5.37986 -31.147014,0.0267 z"
         style="fill:#f9c300;fill-opacity:1;stroke:none" />
      <path
         inkscape:connector-curvature="0"
         style="fill:#f9c300;fill-opacity:1;stroke:none"
         d="m 98.943047,138.81603 c -20.63137,13.50832 -41.66387,11.77379 -62.96127,-0.0267 4.34044,10.14922 4.60888,20.52572 -0.007,31.17485 20.83638,-12.4777 41.82562,-13.18609 62.99529,-0.001 -6.93781,-10.47597 -5.37986,-20.83714 -0.0267,-31.14702 z"
         id="path3592-45"
         sodipodi:nodetypes="ccccc" />
    </g>
    <g
       id="g4883-5"
       transform="matrix(0.55470394,0,0,0.54947102,94.037347,36.775421)"
       style="fill:#f9c300;fill-opacity:1;stroke:none">
      <path
         inkscape:connector-curvature="0"
         sodipodi:nodetypes="ccccc"
         id="path2818-1"
         d="m 51.91169,122.90614 c 13.508317,20.63137 11.773791,41.66387 -0.02669,62.96127 10.149221,-4.34044 20.525717,-4.60888 31.174844,0.007 -12.477694,-20.83638 -13.18609,-41.82562 -0.0011,-62.99529 -10.475972,6.93781 -20.837136,5.37986 -31.147014,0.0267 z"
         style="fill:#f9c300;fill-opacity:1;stroke:none" />
      <path
         inkscape:connector-curvature="0"
         style="fill:#f9c300;fill-opacity:1;stroke:none"
         d="m 98.943047,138.81603 c -20.63137,13.50832 -41.66387,11.77379 -62.96127,-0.0267 4.34044,10.14922 4.60888,20.52572 -0.007,31.17485 20.83638,-12.4777 41.82562,-13.18609 62.99529,-0.001 -6.93781,-10.47597 -5.37986,-20.83714 -0.0267,-31.14702 z"
         id="path3592-7"
         sodipodi:nodetypes="ccccc" />
    </g>
    <g
       id="g4883-11"
       transform="matrix(0.55470394,0,0,0.54947102,164.16284,36.60964)"
       style="fill:#f9c300;fill-opacity:1;stroke:none">
      <path
         inkscape:connector-curvature="0"
         sodipodi:nodetypes="ccccc"
         id="path2818-5"
         d="m 51.91169,122.90614 c 13.508317,20.63137 11.773791,41.66387 -0.02669,62.96127 10.149221,-4.34044 20.525717,-4.60888 31.174844,0.007 -12.477694,-20.83638 -13.18609,-41.82562 -0.0011,-62.99529 -10.475972,6.93781 -20.837136,5.37986 -31.147014,0.0267 z"
         style="fill:#f9c300;fill-opacity:1;stroke:none" />
      <path
         inkscape:connector-curvature="0"
         style="fill:#f9c300;fill-opacity:1;stroke:none"
         d="m 98.943047,138.81603 c -20.63137,13.50832 -41.66387,11.77379 -62.96127,-0.0267 4.34044,10.14922 4.60888,20.52572 -0.007,31.17485 20.83638,-12.4777 41.82562,-13.18609 62.99529,-0.001 -6.93781,-10.47597 -5.37986,-20.83714 -0.0267,-31.14702 z"
         id="path3592-2"
         sodipodi:nodetypes="ccccc" />
    </g>
    <g
       id="g4883-7"
       transform="matrix(0.55470394,0,0,0.54947102,23.414518,110.03612)"
       style="fill:#f9c300;fill-opacity:1;stroke:none">
      <path
         inkscape:connector-curvature="0"
         sodipodi:nodetypes="ccccc"
         id="path2818-6"
         d="m 51.91169,122.90614 c 13.508317,20.63137 11.773791,41.66387 -0.02669,62.96127 10.149221,-4.34044 20.525717,-4.60888 31.174844,0.007 -12.477694,-20.83638 -13.18609,-41.82562 -0.0011,-62.99529 -10.475972,6.93781 -20.837136,5.37986 -31.147014,0.0267 z"
         style="fill:#f9c300;fill-opacity:1;stroke:none" />
      <path
         inkscape:connector-curvature="0"
         style="fill:#f9c300;fill-opacity:1;stroke:none"
         d="m 98.943047,138.81603 c -20.63137,13.50832 -41.66387,11.77379 -62.96127,-0.0267 4.34044,10.14922 4.60888,20.52572 -0.007,31.17485 20.83638,-12.4777 41.82562,-13.18609 62.99529,-0.001 -6.93781,-10.47597 -5.37986,-20.83714 -0.0267,-31.14702 z"
         id="path3592-1"
         sodipodi:nodetypes="ccccc" />
    </g>
    <g
       id="g4883-4"
       transform="matrix(0.55470394,0,0,0.54947102,94.037349,110.20191)"
       style="fill:#f9c300;fill-opacity:1;stroke:none">
      <path
         inkscape:connector-curvature="0"
         sodipodi:nodetypes="ccccc"
         id="path2818-23"
         d="m 51.91169,122.90614 c 13.508317,20.63137 11.773791,41.66387 -0.02669,62.96127 10.149221,-4.34044 20.525717,-4.60888 31.174844,0.007 -12.477694,-20.83638 -13.18609,-41.82562 -0.0011,-62.99529 -10.475972,6.93781 -20.837136,5.37986 -31.147014,0.0267 z"
         style="fill:#f9c300;fill-opacity:1;stroke:none" />
      <path
         inkscape:connector-curvature="0"
         style="fill:#f9c300;fill-opacity:1;stroke:none"
         d="m 98.943047,138.81603 c -20.63137,13.50832 -41.66387,11.77379 -62.96127,-0.0267 4.34044,10.14922 4.60888,20.52572 -0.007,31.17485 20.83638,-12.4777 41.82562,-13.18609 62.99529,-0.001 -6.93781,-10.47597 -5.37986,-20.83714 -0.0267,-31.14702 z"
         id="path3592-22"
         sodipodi:nodetypes="ccccc" />
    </g>
    <g
       id="g4883-16"
       transform="matrix(0.55470394,0,0,0.54947102,164.4944,110.36769)"
       style="fill:#f9c300;fill-opacity:1;stroke:none">
      <path
         inkscape:connector-curvature="0"
         sodipodi:nodetypes="ccccc"
         id="path2818-8"
         d="m 51.91169,122.90614 c 13.508317,20.63137 11.773791,41.66387 -0.02669,62.96127 10.149221,-4.34044 20.525717,-4.60888 31.174844,0.007 -12.477694,-20.83638 -13.18609,-41.82562 -0.0011,-62.99529 -10.475972,6.93781 -20.837136,5.37986 -31.147014,0.0267 z"
         style="fill:#f9c300;fill-opacity:1;stroke:none" />
      <path
         inkscape:connector-curvature="0"
         style="fill:#f9c300;fill-opacity:1;stroke:none"
         d="m 98.943047,138.81603 c -20.63137,13.50832 -41.66387,11.77379 -62.96127,-0.0267 4.34044,10.14922 4.60888,20.52572 -0.007,31.17485 20.83638,-12.4777 41.82562,-13.18609 62.99529,-0.001 -6.93781,-10.47597 -5.37986,-20.83714 -0.0267,-31.14702 z"
         id="path3592-5"
         sodipodi:nodetypes="ccccc" />
    </g>
    <g
       id="g4883-76"
       transform="matrix(0.55470394,0,0,0.54947102,23.414518,177.01177)"
       style="fill:#f9c300;fill-opacity:1;stroke:none">
      <path
         inkscape:connector-curvature="0"
         sodipodi:nodetypes="ccccc"
         id="path2818-18"
         d="m 51.91169,122.90614 c 13.508317,20.63137 11.773791,41.66387 -0.02669,62.96127 10.149221,-4.34044 20.525717,-4.60888 31.174844,0.007 -12.477694,-20.83638 -13.18609,-41.82562 -0.0011,-62.99529 -10.475972,6.93781 -20.837136,5.37986 -31.147014,0.0267 z"
         style="fill:#f9c300;fill-opacity:1;stroke:none" />
      <path
         inkscape:connector-curvature="0"
         style="fill:#f9c300;fill-opacity:1;stroke:none"
         d="m 98.943047,138.81603 c -20.63137,13.50832 -41.66387,11.77379 -62.96127,-0.0267 4.34044,10.14922 4.60888,20.52572 -0.007,31.17485 20.83638,-12.4777 41.82562,-13.18609 62.99529,-0.001 -6.93781,-10.47597 -5.37986,-20.83714 -0.0267,-31.14702 z"
         id="path3592-9"
         sodipodi:nodetypes="ccccc" />
    </g>
    <g
       id="g4883-2"
       transform="matrix(0.55470394,0,0,0.54947102,94.203128,177.01176)"
       style="fill:#f9c300;fill-opacity:1;stroke:none">
      <path
         inkscape:connector-curvature="0"
         sodipodi:nodetypes="ccccc"
         id="path2818-79"
         d="m 51.91169,122.90614 c 13.508317,20.63137 11.773791,41.66387 -0.02669,62.96127 10.149221,-4.34044 20.525717,-4.60888 31.174844,0.007 -12.477694,-20.83638 -13.18609,-41.82562 -0.0011,-62.99529 -10.475972,6.93781 -20.837136,5.37986 -31.147014,0.0267 z"
         style="fill:#f9c300;fill-opacity:1;stroke:none" />
      <path
         inkscape:connector-curvature="0"
         style="fill:#f9c300;fill-opacity:1;stroke:none"
         d="m 98.943047,138.81603 c -20.63137,13.50832 -41.66387,11.77379 -62.96127,-0.0267 4.34044,10.14922 4.60888,20.52572 -0.007,31.17485 20.83638,-12.4777 41.82562,-13.18609 62.99529,-0.001 -6.93781,-10.47597 -5.37986,-20.83714 -0.0267,-31.14702 z"
         id="path3592-54"
         sodipodi:nodetypes="ccccc" />
    </g>
    <g
       id="g4883-3"
       transform="matrix(0.55470394,0,0,0.54947102,164.4944,176.84599)"
       style="fill:#f9c300;fill-opacity:1;stroke:none">
      <path
         inkscape:connector-curvature="0"
         sodipodi:nodetypes="ccccc"
         id="path2818-12"
         d="m 51.91169,122.90614 c 13.508317,20.63137 11.773791,41.66387 -0.02669,62.96127 10.149221,-4.34044 20.525717,-4.60888 31.174844,0.007 -12.477694,-20.83638 -13.18609,-41.82562 -0.0011,-62.99529 -10.475972,6.93781 -20.837136,5.37986 -31.147014,0.0267 z"
         style="fill:#f9c300;fill-opacity:1;stroke:none" />
      <path
         inkscape:connector-curvature="0"
         style="fill:#f9c300;fill-opacity:1;stroke:none"
         d="m 98.943047,138.81603 c -20.63137,13.50832 -41.66387,11.77379 -62.96127,-0.0267 4.34044,10.14922 4.60888,20.52572 -0.007,31.17485 20.83638,-12.4777 41.82562,-13.18609 62.99529,-0.001 -6.93781,-10.47597 -5.37986,-20.83714 -0.0267,-31.14702 z"
         id="path3592-3"
         sodipodi:nodetypes="ccccc" />
    </g>
  </g>
</svg>
