<?xml version="1.0" encoding="UTF-8" standalone="no"?>
<!-- Created with Inkscape (http://www.inkscape.org/) -->

<svg
   id="svg3336"
   version="1.1"
   inkscape:version="1.3.2 (091e20ef0f, 2023-11-25, custom)"
   width="278"
   height="184"
   viewBox="0 0 278 184"
   sodipodi:docname="Flag_of_Kharagauli_Municipality.svg"
   xmlns:inkscape="http://www.inkscape.org/namespaces/inkscape"
   xmlns:sodipodi="http://sodipodi.sourceforge.net/DTD/sodipodi-0.dtd"
   xmlns="http://www.w3.org/2000/svg"
   xmlns:svg="http://www.w3.org/2000/svg"
   xmlns:rdf="http://www.w3.org/1999/02/22-rdf-syntax-ns#"
   xmlns:cc="http://creativecommons.org/ns#"
   xmlns:dc="http://purl.org/dc/elements/1.1/">
  <metadata
     id="metadata3342">
    <rdf:RDF>
      <cc:Work
         rdf:about="">
        <dc:format>image/svg+xml</dc:format>
        <dc:type
           rdf:resource="http://purl.org/dc/dcmitype/StillImage" />
        <dc:title />
      </cc:Work>
    </rdf:RDF>
  </metadata>
  <defs
     id="defs3340" />
  <sodipodi:namedview
     pagecolor="#ffffff"
     bordercolor="#666666"
     borderopacity="1"
     objecttolerance="10"
     gridtolerance="10"
     guidetolerance="10"
     inkscape:pageopacity="0"
     inkscape:pageshadow="2"
     inkscape:window-width="1920"
     inkscape:window-height="1015"
     id="namedview3338"
     showgrid="false"
     borderlayer="false"
     fit-margin-top="-58"
     fit-margin-bottom="-58"
     fit-margin-left="-11"
     fit-margin-right="-11"
     showguides="false"
     inkscape:guide-bbox="true"
     inkscape:zoom="3.0802237"
     inkscape:cx="139.43792"
     inkscape:cy="93.175051"
     inkscape:window-x="0"
     inkscape:window-y="0"
     inkscape:window-maximized="1"
     inkscape:current-layer="layer1"
     inkscape:showpageshadow="2"
     inkscape:pagecheckerboard="0"
     inkscape:deskcolor="#d1d1d1" />
  <g
     inkscape:groupmode="layer"
     id="layer1"
     inkscape:label="Layer 1"
     style="display:inline">
    <rect
       style="opacity:1;fill:#ffffff;fill-opacity:1;stroke:#000000;stroke-width:0.19892502;stroke-miterlimit:4;stroke-dasharray:none;stroke-opacity:1"
       id="rect3347"
       width="277.99167"
       height="183.7216"
       x="-0.00053749036"
       y="0.2742227" />
  </g>
  <g
     inkscape:groupmode="layer"
     id="layer2"
     inkscape:label="Layer 2"
     style="display:inline">
    <rect
       style="opacity:1;fill:#00923f;fill-opacity:1;stroke:none;stroke-width:0.40000001;stroke-miterlimit:4;stroke-dasharray:none;stroke-opacity:1"
       id="rect3350"
       width="139.78668"
       height="184.6292"
       x="-0.16450618"
       y="-0.15450701" />
  </g>
  <g
     inkscape:groupmode="layer"
     id="layer3"
     inkscape:label="Layer 3"
     style="display:inline">
    <path
       style="fill:#ffffff;fill-rule:evenodd;stroke:none;stroke-width:1px;stroke-linecap:butt;stroke-linejoin:miter;stroke-opacity:1;fill-opacity:1"
       d="m 91.220357,68.745478 40.782803,0 -0.15697,-40.314879 7.78729,-0.0061 0,132.615351 -7.89345,0 0,-75.822578 -40.519673,0 z"
       id="path3353"
       inkscape:connector-curvature="0"
       sodipodi:nodetypes="ccccccccc" />
  </g>
  <g
     inkscape:groupmode="layer"
     id="layer4"
     inkscape:label="Layer 4"
     style="display:inline">
    <path
       sodipodi:nodetypes="ccccccccc"
       inkscape:connector-curvature="0"
       id="path3357"
       d="m 187.87367,68.740092 -40.67502,0 0.15654,-40.316172 -7.7667,0.0052 0,132.60829 7.87258,0 0,-75.825026 40.4126,0 z"
       style="fill:#00923f;fill-rule:evenodd;stroke:none;stroke-width:1px;stroke-linecap:butt;stroke-linejoin:miter;stroke-opacity:1;fill-opacity:1" />
  </g>
  <g
     inkscape:groupmode="layer"
     id="layer5"
     inkscape:label="Layer 5"
     style="display:inline">
    <path
       style="fill:#ffffff;fill-rule:evenodd;stroke:none;stroke-width:1px;stroke-linecap:butt;stroke-linejoin:miter;stroke-opacity:1;fill-opacity:1"
       d="m 96.863281,22.878906 0.08008,13.75586 -13.425781,0.15039 0,8.871094 13.113281,-0.07422 0.152344,13.501953 8.871095,0 -0.0762,-13.507812 13.82422,-0.158203 0,-8.871094 -13.51172,0.07813 -0.15624,-13.746094 -8.871097,0 z"
       id="path3376"
       inkscape:connector-curvature="0" />
    <path
       id="path4185"
       d="m 174.08371,22.933424 0.0801,13.75586 -13.42578,0.15039 0,8.871094 13.11328,-0.07422 0.15234,13.501953 8.8711,0 -0.0762,-13.507812 13.82422,-0.158203 0,-8.871094 -13.51172,0.07813 -0.15624,-13.746094 -8.8711,0 z"
       style="fill:#00923f;fill-rule:evenodd;stroke:none;stroke-width:1px;stroke-linecap:butt;stroke-linejoin:miter;stroke-opacity:1;fill-opacity:1"
       inkscape:connector-curvature="0" />
  </g>
  <g
     inkscape:groupmode="layer"
     id="layer6"
     inkscape:label="Layer 6"
     style="display:inline">
    <path
       style="fill:#ffffff;fill-rule:evenodd;stroke:none;stroke-width:1px;stroke-linecap:butt;stroke-linejoin:miter;stroke-opacity:1;fill-opacity:1"
       d="m 100.16701,93.664062 0,0.0098 -3.181642,0 0,19.593748 -13.677734,0 0,8.99609 13.677734,-0.125 0,39.06445 3.181642,-0.0215 0,0.0215 5.42188,-0.01 0,-39.06445 13.67773,0.12304 0,-8.99414 -13.67773,0 0,-19.593744 -5.42188,0 z"
       id="path4194"
       inkscape:connector-curvature="0" />
    <path
       inkscape:connector-curvature="0"
       id="path4199"
       d="m 177.5742,93.919953 0,0.0098 -3.18164,0 0,19.593747 -13.67774,0 0,8.99609 13.67774,-0.125 0,39.06445 3.18164,-0.0215 0,0.0215 5.42188,-0.01 0,-39.06445 13.67773,0.12304 0,-8.99414 -13.67773,0 0,-19.593743 -5.42188,0 z"
       style="fill:#00923f;fill-rule:evenodd;stroke:none;stroke-width:1px;stroke-linecap:butt;stroke-linejoin:miter;stroke-opacity:1;fill-opacity:1" />
  </g>
</svg>
