<?xml version="1.0" encoding="UTF-8" standalone="no"?>
<!-- Created with Inkscape (http://www.inkscape.org/) -->

<svg
   id="svg3336"
   version="1.1"
   inkscape:version="1.3.2 (091e20ef0f, 2023-11-25, custom)"
   width="277"
   height="184"
   viewBox="0 0 277 184"
   sodipodi:docname="Flag_of_Khulo_Municipality.svg"
   xmlns:inkscape="http://www.inkscape.org/namespaces/inkscape"
   xmlns:sodipodi="http://sodipodi.sourceforge.net/DTD/sodipodi-0.dtd"
   xmlns="http://www.w3.org/2000/svg"
   xmlns:svg="http://www.w3.org/2000/svg"
   xmlns:rdf="http://www.w3.org/1999/02/22-rdf-syntax-ns#"
   xmlns:cc="http://creativecommons.org/ns#"
   xmlns:dc="http://purl.org/dc/elements/1.1/">
  <metadata
     id="metadata3342">
    <rdf:RDF>
      <cc:Work
         rdf:about="">
        <dc:format>image/svg+xml</dc:format>
        <dc:type
           rdf:resource="http://purl.org/dc/dcmitype/StillImage" />
        <dc:title />
      </cc:Work>
    </rdf:RDF>
  </metadata>
  <defs
     id="defs3340" />
  <sodipodi:namedview
     pagecolor="#ffffff"
     bordercolor="#666666"
     borderopacity="1"
     objecttolerance="10"
     gridtolerance="10"
     guidetolerance="10"
     inkscape:pageopacity="0"
     inkscape:pageshadow="2"
     inkscape:window-width="1920"
     inkscape:window-height="1015"
     id="namedview3338"
     showgrid="false"
     borderlayer="false"
     fit-margin-top="-58"
     fit-margin-left="-11"
     fit-margin-right="-12"
     fit-margin-bottom="-58"
     inkscape:zoom="3.0916501"
     inkscape:cx="148.94959"
     inkscape:cy="89.596167"
     inkscape:window-x="0"
     inkscape:window-y="0"
     inkscape:window-maximized="1"
     inkscape:current-layer="layer3"
     inkscape:showpageshadow="2"
     inkscape:pagecheckerboard="0"
     inkscape:deskcolor="#d1d1d1" />
  <g
     inkscape:groupmode="layer"
     id="layer1"
     inkscape:label="Layer 1"
     style="display:inline">
    <rect
       style="opacity:1;fill:#00923f;fill-opacity:1;stroke:none"
       id="rect3347"
       width="277.70712"
       height="184.17722"
       x="-0.47468355"
       y="-0.17721519" />
  </g>
  <g
     inkscape:groupmode="layer"
     id="layer2"
     inkscape:label="Layer 2"
     style="display:inline">
    <rect
       style="opacity:1;fill:#ff0000;fill-opacity:1;stroke:none"
       id="rect3350"
       width="138.62485"
       height="184.57205"
       x="138.60759"
       y="-0.17721519" />
  </g>
  <g
     inkscape:groupmode="layer"
     id="layer3"
     inkscape:label="Layer 3"
     style="display:inline">
    <path
       style="fill:#ffffff;fill-opacity:1;fill-rule:evenodd;stroke:none;stroke-width:1px;stroke-linecap:butt;stroke-linejoin:miter;stroke-opacity:1"
       d="m 138.46853,35.42534 -46.976556,0.113282 0.113281,98.181638 0.115234,2.05469 0.455079,2.2832 0.457031,1.59961 1.142578,1.48242 1.140625,0.91406 1.255859,1.02735 1.59961,0.57031 1.826172,0.45703 2.054677,0.11523 22.60352,0 2.2832,0.45508 2.05664,0.68555 1.93946,0.57031 1.5996,0.91406 1.48243,1.14258 1.48437,1.14063 1.3711,1.25586 1.02734,1.25586 1.08203,1.73242 0.0158,0.0306 0.0135,0.0162 -0.002,-0.008 0.0315,-0.0385 1.08399,-1.73242 1.02734,-1.25586 1.36914,-1.25586 1.48438,-1.14063 1.48437,-1.14258 1.59766,-0.91406 1.94141,-0.57031 2.05468,-0.68555 2.28321,-0.45508 22.60546,0 2.05469,-0.11523 1.82617,-0.45703 1.59766,-0.57031 1.25586,-1.02735 1.14258,-0.91406 1.14062,-1.48242 0.45703,-1.59961 0.45704,-2.2832 0.11328,-2.05469 0.11523,-98.181638 -46.97656,-0.113282 -0.28711,0 z"
       id="path3353"
       inkscape:connector-curvature="0"
       sodipodi:nodetypes="ccccccccccccccccccccccccccccccccccccccccccccccccc" />
  </g>
  <g
     inkscape:groupmode="layer"
     id="layer4"
     inkscape:label="Layer 4"
     style="display:inline">
    <path
       style="fill:#ff0000;fill-rule:evenodd;stroke:none;stroke-width:1px;stroke-linecap:butt;stroke-linejoin:miter;stroke-opacity:1;fill-opacity:1"
       d="m 115.48633,43.542969 -0.10352,0.144531 -0.0488,-0.06836 0,0.138671 -2.66406,3.744141 0.0762,42.023438 0.15235,21.92383 -6.08008,0.15234 a 0.73237139,0.98412412 0 0 0 -0.625,-0.47265 0.73237139,0.98412412 0 0 0 -0.73242,0.98437 0.73237139,0.98412412 0 0 0 0.73242,0.98438 0.73237139,0.98412412 0 0 0 0.70508,-0.72266 l 6.38086,0.44531 0.68359,16.51953 -1.59766,0.0762 0.30469,1.52343 0.60938,1.52149 1.06445,1.52344 1.06641,1.21679 0,0.0762 1.0664,-1.21679 1.06446,-1.52344 0.60937,-1.52149 0.30469,-1.52343 -1.59766,-0.0762 0.6836,-16.51954 6.26562,-0.4375 a 0.73237139,0.98412412 0 0 0 0.69727,0.6836 0.73237139,0.98412412 0 0 0 0.73242,-0.98438 0.73237139,0.98412412 0 0 0 -0.73242,-0.98242 0.73237139,0.98412412 0 0 0 -0.31836,0.0977 c -0.005,-0.0206 -0.006,-0.0472 -0.0215,-0.0508 l -0.0273,0.0859 a 0.73237139,0.98412412 0 0 0 -0.26953,0.36719 l -5.94531,-0.14844 0.15234,-21.925779 0.0762,-42.023437 -2.66406,-3.746094 0,-0.289062 z"
       id="path4160"
       inkscape:connector-curvature="0" />
    <path
       sodipodi:type="star"
       style="opacity:1;fill:#ff0000;fill-opacity:1;stroke:none;stroke-opacity:1"
       id="path4177"
       sodipodi:sides="8"
       sodipodi:cx="102.3489"
       sodipodi:cy="92.270485"
       sodipodi:r1="6.2359176"
       sodipodi:r2="3.1179588"
       sodipodi:arg1="0.70225693"
       sodipodi:arg2="1.094956"
       inkscape:flatsided="false"
       inkscape:rounded="0"
       inkscape:randomized="0"
       d="m 107.10931,96.298527 -3.33212,-1.256463 -0.91043,3.442798 -1.46771,-3.24462 -3.078193,1.790657 1.256464,-3.332122 -3.442798,-0.910427 3.24462,-1.467712 -1.790657,-3.078196 3.332124,1.256464 0.91043,-3.442798 1.46771,3.24462 3.07819,-1.790657 -1.25646,3.332122 3.4428,0.910427 -3.24462,1.467712 z"
       transform="matrix(0.92858624,0.09767093,-0.09959716,0.94689945,16.468979,-5.1717737)" />
    <path
       transform="matrix(0.92858624,0.09767093,-0.09959716,0.94689945,43.063215,-5.0802277)"
       d="m 107.10931,96.298527 -3.33212,-1.256463 -0.91043,3.442798 -1.46771,-3.24462 -3.078193,1.790657 1.256464,-3.332122 -3.442798,-0.910427 3.24462,-1.467712 -1.790657,-3.078196 3.332124,1.256464 0.91043,-3.442798 1.46771,3.24462 3.07819,-1.790657 -1.25646,3.332122 3.4428,0.910427 -3.24462,1.467712 z"
       inkscape:randomized="0"
       inkscape:rounded="0"
       inkscape:flatsided="false"
       sodipodi:arg2="1.094956"
       sodipodi:arg1="0.70225693"
       sodipodi:r2="3.1179588"
       sodipodi:r1="6.2359176"
       sodipodi:cy="92.270485"
       sodipodi:cx="102.3489"
       sodipodi:sides="8"
       id="path4179"
       style="opacity:1;fill:#ff0000;fill-opacity:1;stroke:none;stroke-opacity:1"
       sodipodi:type="star" />
  </g>
  <g
     inkscape:groupmode="layer"
     id="layer5"
     inkscape:label="Layer 5"
     style="display:inline;opacity:1">
    <rect
       style="opacity:1;fill:#2c5aa0;fill-opacity:1;stroke:none;stroke-opacity:1"
       id="rect4200"
       width="47.521942"
       height="15.451921"
       x="138.48419"
       y="35.457485" />
    <rect
       y="66.65287"
       x="138.33842"
       height="15.451921"
       width="47.521942"
       id="rect4202"
       style="opacity:1;fill:#2c5aa0;fill-opacity:1;stroke:none;stroke-opacity:1" />
    <rect
       style="opacity:1;fill:#2c5aa0;fill-opacity:1;stroke:none;stroke-opacity:1"
       id="rect4204"
       width="47.521942"
       height="15.451921"
       x="138.33842"
       y="98.139801" />
    <path
       style="fill:#2c5aa0;fill-opacity:1;fill-rule:evenodd;stroke:none;stroke-width:1px;stroke-linecap:butt;stroke-linejoin:miter;stroke-opacity:1"
       d="m 138.60284,153.42845 0.3187,-23.80172 46.73666,0.0145 -0.0162,3.92892 -0.12661,2.32886 -0.45648,2.24409 -0.3851,1.42467 -0.50939,0.83976 -0.57041,0.60448 -1.21651,1.07452 -1.29226,1.01108 -1.68812,0.57257 -1.73429,0.48038 -1.84455,0.10745 -22.02792,0.38332 -2.47814,0.14577 -2.37303,0.4948 -2.14924,0.69188 -1.78992,0.98305 -1.7132,1.28131 -1.26888,0.99202 -1.26467,1.24295 -1.33988,1.69055 z"
       id="path4245"
       inkscape:connector-curvature="0"
       sodipodi:nodetypes="cccccccccccccccccccccccc" />
  </g>
</svg>
